<svg width="19" height="18" viewBox="0 0 19 18" fill="none" xmlns="http://www.w3.org/2000/svg">
<path d="M18.1708 17.6707C17.951 17.8905 17.663 18 17.375 18C17.087 18 16.799 17.8905 16.5793 17.6707L2.75 3.84075V10.125C2.75 10.7467 2.24675 11.25 1.625 11.25C1.00325 11.25 0.5 10.7467 0.5 10.125V3.375C0.5 1.51425 2.01425 0 3.875 0H10.625C11.2468 0 11.75 0.50325 11.75 1.125C11.75 1.74675 11.2468 2.25 10.625 2.25H4.34075L18.1708 16.0793C18.6103 16.518 18.6103 17.2312 18.1708 17.67V17.6707Z" fill="#056946"/>
</svg>
